<svg xmlns="http://www.w3.org/2000/svg" width="91" height="26" viewBox="0 0 91 26" fill="none">
<path d="M5.54298 26C6.09722 24.6047 6.65579 23.1935 6.88524 21.702C7.1147 20.2106 6.98737 18.6086 6.24074 17.3146C5.08456 15.311 2.74842 14.4579 0.565674 13.9303C3.59655 12.0838 6.63571 10.2317 9.43503 8.02242C12.2344 5.81319 14.8025 3.22641 16.6854 0.134766C14.1895 9.2565 10.4236 17.9982 5.54298 26Z" fill="#400D69"/>
<path d="M6.09248 8.59073C7.61866 8.59073 8.85586 7.25454 8.85586 5.60628C8.85586 3.95801 7.61866 2.62183 6.09248 2.62183C4.56631 2.62183 3.3291 3.95801 3.3291 5.60628C3.3291 7.25454 4.56631 8.59073 6.09248 8.59073Z" fill="#400D69"/>
<path d="M90.5009 25.9999H84.8765L81.2897 20.4766L77.6693 25.9999H72.0449L78.6291 16.7551L72.0449 7.86389H77.6693L81.2897 13.0336L84.8765 7.86389H90.5009L83.8998 16.7551L90.5009 25.9999Z" fill="#671FA3"/>
<path d="M71.1693 3.06476C71.1693 3.49136 71.0851 3.88989 70.9167 4.26036C70.7595 4.63082 70.5406 4.95638 70.26 5.23704C69.9793 5.50647 69.6481 5.72538 69.2665 5.89377C68.896 6.05094 68.4975 6.12953 68.0709 6.12953C67.6443 6.12953 67.2401 6.05094 66.8584 5.89377C66.488 5.72538 66.1624 5.50647 65.8817 5.23704C65.6123 4.95638 65.3934 4.63082 65.225 4.26036C65.0678 3.88989 64.9893 3.49136 64.9893 3.06476C64.9893 2.64939 65.0678 2.25647 65.225 1.88601C65.3934 1.50432 65.6123 1.17875 65.8817 0.909325C66.1624 0.628669 66.488 0.409758 66.8584 0.25259C67.2401 0.0841968 67.6443 0 68.0709 0C68.4975 0 68.896 0.0841968 69.2665 0.25259C69.6481 0.409758 69.9793 0.628669 70.26 0.909325C70.5406 1.17875 70.7595 1.50432 70.9167 1.88601C71.0851 2.25647 71.1693 2.64939 71.1693 3.06476ZM70.3779 26H65.747V7.96501H70.3779V26Z" fill="#671FA3"/>
<path d="M56.0646 26H51.4674V7.96509H52.5788L54.0943 10.1037C54.8353 9.43011 55.6772 8.9137 56.6202 8.55447C57.5633 8.184 58.5399 7.99877 59.5503 7.99877H63.6086V12.5791H59.5503C59.0676 12.5791 58.6129 12.6689 58.1863 12.8485C57.7597 13.0281 57.3892 13.2751 57.0749 13.5894C56.7606 13.9038 56.5136 14.2742 56.334 14.7008C56.1544 15.1274 56.0646 15.5821 56.0646 16.0648V26Z" fill="#671FA3"/>
<path d="M48.7392 3.06476C48.7392 3.49136 48.6551 3.88989 48.4867 4.26036C48.3295 4.63082 48.1106 4.95638 47.8299 5.23704C47.5493 5.50647 47.2181 5.72538 46.8364 5.89377C46.4659 6.05094 46.0674 6.12953 45.6408 6.12953C45.2142 6.12953 44.8101 6.05094 44.4284 5.89377C44.0579 5.72538 43.7323 5.50647 43.4517 5.23704C43.1823 4.95638 42.9633 4.63082 42.795 4.26036C42.6378 3.88989 42.5592 3.49136 42.5592 3.06476C42.5592 2.64939 42.6378 2.25647 42.795 1.88601C42.9633 1.50432 43.1823 1.17875 43.4517 0.909325C43.7323 0.628669 44.0579 0.409758 44.4284 0.25259C44.8101 0.0841968 45.2142 0 45.6408 0C46.0674 0 46.4659 0.0841968 46.8364 0.25259C47.2181 0.409758 47.5493 0.628669 47.8299 0.909325C48.1106 1.17875 48.3295 1.50432 48.4867 1.88601C48.6551 2.25647 48.7392 2.64939 48.7392 3.06476ZM47.9478 26H43.317V7.96501H47.9478V26Z" fill="#671FA3"/>
<path d="M24.8274 25.9999H19.9945V1.85229H24.8274V11.5181H34.4764V1.85229H39.3092V25.9999H34.4764V16.351H24.8274V25.9999Z" fill="#671FA3"/>
</svg>