<?xml version="1.0" encoding="UTF-8"?>
<svg xmlns="http://www.w3.org/2000/svg" width="17" height="26" viewBox="0 0 17 26" fill="none">
<path d="M5.54298 26C6.09722 24.6047 6.65579 23.1935 6.88524 21.702C7.1147 20.2106 6.98737 18.6086 6.24074 17.3146C5.08456 15.311 2.74842 14.4579 0.565674 13.9303C3.59655 12.0838 6.63571 10.2317 9.43503 8.02242C12.2344 5.81319 14.8025 3.22641 16.6854 0.134766C14.1895 9.2565 10.4236 17.9982 5.54298 26Z" fill="#400D69"/>
<path d="M6.09248 8.59073C7.61866 8.59073 8.85586 7.25454 8.85586 5.60628C8.85586 3.95801 7.61866 2.62183 6.09248 2.62183C4.56631 2.62183 3.3291 3.95801 3.3291 5.60628C3.3291 7.25454 4.56631 8.59073 6.09248 8.59073Z" fill="#400D69"/>
</svg> 